<svg width="325" height="237" viewBox="0 0 325 237" fill="none" xmlns="http://www.w3.org/2000/svg">
<path d="M309.949 21H38.0504C29.7382 21 22.9999 28.2692 22.9999 37.2363V220.524C22.9999 229.491 29.7382 236.76 38.0504 236.76H309.949C318.262 236.76 325 229.491 325 220.524V37.2363C325 28.2692 318.262 21 309.949 21Z" fill="#B2B8B6"/>
<path d="M142.119 68.1889V30.9423H135.224V46.0926H121.885V30.9423H114.99V68.1889H121.885V52.5353H135.224V68.1889H142.119Z" fill="white"/>
<path d="M176.33 53.844C176.33 45.7403 170.039 39.2976 161.885 39.2976C153.429 39.2976 147.187 45.9416 147.187 54.2969C147.187 62.6019 153.58 69.0949 161.935 69.0949C167.874 69.0949 173.612 65.0683 175.424 59.3806H168.378C167.019 61.847 164.653 62.9543 161.935 62.9543C159.167 62.9543 156.65 61.545 155.14 59.2296C154.737 58.6256 154.385 57.9713 154.234 57.2163H175.928C176.179 56.109 176.33 54.9513 176.33 53.844ZM169.485 51.8306H154.033C154.989 47.8543 157.858 45.4383 161.935 45.4383C166.012 45.4383 168.831 47.804 169.485 51.8306Z" fill="white"/>
<path d="M187.284 68.1889V30.9422H180.59V68.1889H187.284Z" fill="white"/>
<path d="M199.376 68.1889V30.9422H192.681V68.1889H199.376Z" fill="white"/>
<path d="M233.01 54.146C233.01 45.9416 226.467 39.2976 218.212 39.2976C209.958 39.2976 203.314 46.0423 203.314 54.2466C203.314 62.4006 210.058 69.0949 218.212 69.0949C226.668 69.0949 233.01 62.6019 233.01 54.146ZM226.316 54.2969C226.316 58.8773 222.944 62.9543 218.212 62.9543C213.38 62.9543 210.008 58.9276 210.008 54.2466C210.008 49.7166 213.481 45.4383 218.212 45.4383C222.944 45.4383 226.316 49.8173 226.316 54.2969Z" fill="white"/>
<path d="M325 102.272H22.9999V219.477H325V102.272Z" fill="white"/>
<path d="M325 102.272H22.9999V219.477H325V102.272Z" fill="white"/>
<path d="M22.9999 101.863H26.3004V219.858H22.9999V101.863Z" fill="#D9D9D9"/>
<path d="M321.699 101.863H325V219.858H321.699V101.863Z" fill="#D9D9D9"/>
<path d="M130.455 90.3356V82.9386C130.455 79.7716 128.705 77.7341 125.45 77.7341C123.656 77.7341 122.349 78.2878 121.397 79.7938C120.754 78.4207 119.027 77.7341 117.587 77.7341C115.971 77.7341 115.085 78.1992 114.066 79.3952H114.022V78.0663H111.896V90.3356H114.199V83.4923C114.199 81.4326 114.863 79.8381 117.233 79.8381C118.185 79.8381 118.983 80.1703 119.514 80.9897C120.024 81.8091 120.024 82.5843 120.024 83.5144V90.3356H122.327V83.4923C122.327 81.4769 122.858 79.8381 125.25 79.8381C127.509 79.8381 128.151 81.5877 128.151 83.5144V90.3356H130.455Z" fill="white"/>
<path d="M143.752 78.0664H141.271L137.573 87.5894L133.963 78.0664H131.482L136.377 90.092L134.583 94.4327H136.975L143.752 78.0664Z" fill="white"/>
<path d="M162.867 90.3356V83.0715C162.867 81.9863 162.69 80.8568 162.092 79.9267C161.14 78.4207 159.501 77.7341 157.752 77.7341C156.334 77.7341 155.05 78.1992 154.164 79.373H154.119V78.0663H151.971V90.3356H154.274V83.6473C154.274 81.5877 155.249 79.8381 157.508 79.8381C159.944 79.8381 160.564 81.5877 160.564 83.6695V90.3356H162.867Z" fill="white"/>
<path d="M178.172 90.3356V78.0663H175.869V79.7938H175.824C174.916 78.3986 173.3 77.7341 171.661 77.7341C167.94 77.7341 165.15 80.5246 165.15 84.2453C165.15 87.9438 167.984 90.6457 171.661 90.6457C173.344 90.6457 174.961 89.9148 175.824 88.431H175.869V90.3356H178.172ZM175.913 84.2231C175.913 86.5928 174.03 88.5417 171.639 88.5417C169.291 88.5417 167.453 86.5264 167.453 84.2231C167.453 81.8313 169.225 79.8381 171.661 79.8381C174.163 79.8381 175.913 81.7648 175.913 84.2231Z" fill="white"/>
<path d="M199.706 90.3356V82.9386C199.706 79.7716 197.957 77.7341 194.701 77.7341C192.907 77.7341 191.601 78.2878 190.648 79.7938C190.006 78.4207 188.279 77.7341 186.839 77.7341C185.222 77.7341 184.337 78.1992 183.318 79.3952H183.274V78.0663H181.147V90.3356H183.451V83.4923C183.451 81.4326 184.115 79.8381 186.485 79.8381C187.437 79.8381 188.234 80.1703 188.766 80.9897C189.275 81.8091 189.275 82.5843 189.275 83.5144V90.3356H191.579V83.4923C191.579 81.4769 192.11 79.8381 194.502 79.8381C196.761 79.8381 197.403 81.5877 197.403 83.5144V90.3356H199.706Z" fill="white"/>
<path d="M214.56 84.046C214.56 80.5911 211.792 77.7341 208.315 77.7341C204.727 77.7341 202.025 80.6354 202.025 84.1788C202.025 87.6116 204.771 90.6457 208.27 90.6457C210.95 90.6457 213.231 88.9847 214.162 86.4821H211.858C211.194 87.7666 209.799 88.5417 208.359 88.5417C206.344 88.5417 204.793 87.1022 204.328 85.1976H214.494C214.538 84.8211 214.56 84.4224 214.56 84.046ZM212.257 83.4258H204.328C204.461 81.4105 206.299 79.8381 208.293 79.8381C210.286 79.8381 212.124 81.4105 212.257 83.4258Z" fill="white"/>
<path d="M225.711 76.649V73.9471H223.408V76.649H225.711ZM225.711 90.3356V78.0664H223.408V90.3356H225.711Z" fill="white"/>
<path d="M236.104 86.7257C236.104 84.356 234.421 83.3594 232.405 82.7393C231.564 82.4735 230.501 82.2299 230.501 81.1447C230.501 80.3253 231.165 79.8381 231.94 79.8381C232.871 79.8381 233.402 80.436 233.513 81.3219H235.816C235.772 79.1958 234.155 77.7341 232.051 77.7341C230.036 77.7341 228.198 79.1737 228.198 81.2776C228.198 85.6184 233.801 84.2896 233.801 86.8586C233.801 87.9216 233.048 88.5417 232.029 88.5417C230.656 88.5417 230.036 87.5673 229.947 86.3049H227.644C227.644 88.2317 228.596 89.7155 230.412 90.3577C230.922 90.5349 231.453 90.6457 231.985 90.6457C234.332 90.6457 236.104 89.1397 236.104 86.7257Z" fill="white"/>
<path fill-rule="evenodd" clip-rule="evenodd" d="M24.4898 0.813479C8.1459 4.59022 -2.03291 20.887 1.74384 37.2309C4.76865 50.3208 15.7913 59.4202 28.4557 60.6226C29.9946 60.5396 30.3442 59.524 30.1648 58.7475C30.0024 58.0449 29.4271 55.7239 28.8546 53.2464C21.7384 56.3321 19.0807 53.5964 18.1046 52.0691C17.5753 51.2955 15.5265 49.0034 14.1069 48.5914C12.9434 48.276 11.1482 47.2496 13.6171 46.6401C15.9381 46.0648 18.1062 47.862 18.8659 48.6213C22.5622 52.4803 26.524 50.2404 28.0455 49.0708C27.86 47.0882 28.3375 45.6146 29.0171 44.6785C22.2643 45.4599 14.7969 44.4978 12.1823 33.1828C11.4389 29.9658 11.97 27.0386 13.3773 24.5321C12.9106 23.8609 11.1746 21.068 11.8616 16.6246C11.8616 16.6246 14.1597 15.2756 20.6973 17.7769C22.91 16.5644 25.3475 15.6506 27.862 15.0695C30.3764 14.4885 32.9678 14.2403 35.4881 14.359C40.257 9.20604 42.9224 9.44705 42.9224 9.44705C45.4893 13.1386 45.1546 16.4099 45.0297 17.2178C47.394 18.8528 49.147 21.2133 49.8989 24.4673C52.5221 35.8192 46.1884 39.9315 39.7774 42.192C41.0634 42.8686 42.3979 44.4299 43.0388 47.2032C43.9531 51.1598 44.6509 54.3483 44.8816 55.3467C45.0583 56.1114 45.806 56.8952 47.1759 56.3101C47.1973 56.3007 47.2187 56.2913 47.2401 56.2819C58.0191 49.6622 63.9235 36.6123 60.9072 23.5594C57.1305 7.21555 40.8337 -2.96326 24.4898 0.813479Z" fill="#1B1F23"/>
<path d="M30.1648 58.7475C30.3442 59.524 29.9946 60.5396 28.4557 60.6226C36.3445 60.2153 40.4199 59.2772 47.1759 56.3101C45.806 56.8952 45.0583 56.1114 44.8816 55.3467C44.6509 54.3483 43.9531 51.1598 43.0388 47.2032C42.3979 44.4299 41.0634 42.8686 39.7774 42.192C46.1884 39.9315 52.5221 35.8192 49.8989 24.4673C49.147 21.2133 47.394 18.8528 45.0297 17.2178C45.1546 16.4099 45.4893 13.1386 42.9224 9.44705C42.9224 9.44705 40.257 9.20604 35.4881 14.359C32.9678 14.2403 30.3764 14.4885 27.862 15.0695C25.3475 15.6506 22.91 16.5644 20.6973 17.7769C14.1597 15.2756 11.8616 16.6246 11.8616 16.6246C11.1746 21.068 12.9106 23.8609 13.3773 24.5321C11.97 27.0386 11.4389 29.9658 12.1823 33.1828C14.7969 44.4978 22.2643 45.4599 29.0171 44.6785C28.3375 45.6146 27.86 47.0882 28.0455 49.0708C26.524 50.2404 22.5622 52.4803 18.8659 48.6213C18.1062 47.862 15.9381 46.0648 13.6171 46.6401C11.1482 47.2496 12.9434 48.276 14.1069 48.5914C15.5265 49.0034 17.5753 51.2955 18.1046 52.0691C19.0807 53.5964 21.7384 56.3321 28.8546 53.2464C29.4271 55.7239 30.0024 58.0449 30.1648 58.7475Z" fill="white"/>
</svg>
