<svg width="91" height="88" viewBox="0 0 91 88" fill="none" xmlns="http://www.w3.org/2000/svg">
<path d="M1.96282 1.75969H40.6769V39.418H1.96282V1.75969Z" fill="#251C14"/>
<path d="M1.96282 1.75969H40.6769V39.418H1.96282V1.75969ZM0.203125 41.1778H42.4367V0H0.203125V41.1778ZM27.8661 14.6762C27.8661 14.5354 27.9188 14.465 28.0773 14.465H30.84C30.9807 14.465 31.0512 14.5177 31.0512 14.6762V28.5605C31.0512 28.7012 31.016 28.7716 30.84 28.7716H28.1125C27.9365 28.7716 27.8837 28.6837 27.8837 28.5429V14.6762H27.8661ZM27.6725 10.6815C27.6725 9.55533 28.4644 8.88665 29.4675 8.88665C30.5409 8.88665 31.2624 9.60811 31.2624 10.6815C31.2624 11.843 30.5057 12.4764 29.4323 12.4764C28.4116 12.4765 27.6725 11.843 27.6725 10.6815ZM19.7537 20.4657C19.2611 18.5124 18.0997 14.2538 17.6596 12.1949H17.6245C17.2549 14.2538 16.3223 17.738 15.5832 20.4657H19.7537ZM14.8617 23.3165L13.4715 28.5957C13.4363 28.7364 13.3835 28.7716 13.2076 28.7716H10.6207C10.4448 28.7716 10.4095 28.7188 10.4448 28.5076L15.4424 11.0159C15.5304 10.6991 15.5832 10.4176 15.6184 9.55533C15.6184 9.43217 15.6711 9.37938 15.7591 9.37938H19.4545C19.5777 9.37938 19.6305 9.41457 19.6658 9.55533L25.2617 28.5428C25.2968 28.6835 25.2617 28.7716 25.1209 28.7716H22.1997C22.059 28.7716 21.9709 28.7364 21.9358 28.6133L20.4928 23.3165H14.8617Z" fill="#FF7F18"/>
<path d="M1.77714 47.828H40.8624V85.8473H1.77714V47.828Z" fill="#0C0824"/>
<path d="M1.77714 47.828H40.8624V85.8473H1.77714V47.828ZM0 87.6244H42.6396V46.0509H0V87.6244ZM28.7467 63.1067C27.3426 63.1067 26.8629 63.8179 26.8629 64.4042C26.8629 65.0437 27.1827 65.4884 29.0665 66.4646C31.8563 67.8153 32.7213 69.1113 32.7213 71.0133C32.7213 73.8564 30.5543 75.3838 27.6228 75.3838C26.3647 75.4305 25.1143 75.1691 23.9802 74.6224C23.8553 74.5691 23.8386 74.4808 23.8386 74.3376V71.7229C23.8386 71.5448 23.9269 71.4915 24.0518 71.5813C25.1168 72.2662 26.3566 72.6299 27.6228 72.629C29.0269 72.629 29.6132 72.0427 29.6132 71.2432C29.6132 70.6036 29.205 70.0356 27.4096 69.1113C24.8863 67.9036 23.8386 66.6747 23.8386 64.6341C23.8386 62.3422 25.6325 60.4417 28.7421 60.4417C29.8245 60.3952 30.9054 60.5645 31.9218 60.9397C31.9803 60.9777 32.0277 61.0306 32.059 61.0929C32.0903 61.1553 32.1045 61.2249 32.1 61.2945V63.7311C32.1 63.8727 32.0116 63.9625 31.8335 63.9092C30.8941 63.3685 29.8259 63.0922 28.7421 63.1097L28.7467 63.1067ZM13.4665 65.2204C13.8746 65.2554 14.1944 65.2554 14.9056 65.2554C16.9842 65.2554 18.9381 64.5275 18.9381 61.7026C18.9381 59.4458 17.534 58.3097 15.1721 58.3097C14.4609 58.3097 13.7863 58.3448 13.4665 58.363V65.2204ZM10.3035 55.7788C10.3035 55.6539 10.5518 55.5656 10.6949 55.5656C11.8325 55.5123 13.5198 55.4773 15.2787 55.4773C20.2005 55.4773 22.1193 58.1773 22.1193 61.625C22.1193 66.1371 18.8497 68.0742 14.8355 68.0742C14.1609 68.0742 13.9294 68.0392 13.4497 68.0392V74.8615C13.4497 75.0031 13.3964 75.0747 13.2365 75.0747H10.5183C10.3766 75.0747 10.3051 75.0214 10.3051 74.8615V55.7864L10.3035 55.7788Z" fill="#31C5F0"/>
<path d="M49.3175 47.5714H89.0242V86.1951H49.3175V47.5714Z" fill="#12002C"/>
<path d="M49.3175 47.5714H89.0242V86.1951H49.3175V47.5714ZM47.5127 88H90.829V45.7665H47.5127V88ZM78.1589 66.1252C79.0793 66.1252 79.4043 66.1252 79.4945 66.0891C79.4945 65.9628 79.5306 65.8725 79.5306 65.7823C79.5306 64.8076 79.0613 63.0028 77.1843 63.0028C75.4516 63.0028 74.7117 64.5188 74.5312 66.1252H78.1589ZM74.4951 68.5978C74.5312 71.0344 75.6863 72.6768 78.4297 72.6768C79.4946 72.6768 80.415 72.5325 81.3716 72.1174C81.498 72.0632 81.5883 72.0813 81.5883 72.2437V74.4997C81.5883 74.6802 81.5341 74.7705 81.4078 74.8607C80.4512 75.3299 79.26 75.5465 77.78 75.5465C73.0153 75.5465 71.2285 72.0271 71.2285 68.1106C71.2285 63.8512 73.4304 60.3679 77.3108 60.3679C81.2454 60.3679 82.6171 63.6707 82.6171 66.3599C82.6171 67.2263 82.563 67.9302 82.4727 68.2731C82.4366 68.4175 82.3825 68.4717 82.2381 68.5078C81.8771 68.5619 80.8122 68.634 79.2239 68.634H74.4951V68.5978ZM64.8212 66.7569C64.3159 64.7535 63.0885 60.3858 62.6373 58.2741H62.6012C62.2222 60.3858 61.2295 63.9593 60.4895 66.7569H64.8212ZM59.7495 69.6808L58.3237 75.0773C58.2876 75.2216 58.2335 75.2758 58.053 75.2758H55.3998C55.2194 75.2758 55.1832 75.2216 55.2194 75.0051L60.3451 57.0829C60.4353 56.7581 60.4895 56.5054 60.5256 55.603C60.5256 55.4767 60.5797 55.4225 60.6699 55.4225H64.4601C64.5864 55.4225 64.6406 55.4586 64.6767 55.603L70.4161 75.0412C70.4522 75.1855 70.4161 75.2758 70.2717 75.2758H67.2938C67.1494 75.2758 67.0591 75.2216 67.023 75.0954L65.543 69.6808L59.7495 69.6808Z" fill="#D8A1FF"/>
<path d="M47.3096 0.284332H90.3552V40.8934H47.3096V0.284332Z" fill="#333333"/>
<path d="M68.9745 20.1828C68.9745 17.2665 71.28 14.9044 74.1217 14.9044C76.9657 14.9044 79.2689 17.2642 79.2689 20.1828C79.2689 23.0992 76.9657 25.4613 74.1217 25.4613C71.2823 25.4613 68.9745 23.1015 68.9745 20.1828Z" fill="#1ABCFE"/>
<path d="M58.6801 30.7419C58.6801 27.8255 60.9856 25.4612 63.8273 25.4612H68.9745V30.7419C68.9745 33.656 66.669 36.0203 63.8273 36.0203C60.9856 36.0203 58.6801 33.656 58.6801 30.7419Z" fill="#0ACF83"/>
<path d="M68.9745 4.34524V14.9044L74.1217 14.9044C76.9657 14.9044 79.2689 12.54 79.2689 9.62367C79.2689 6.70956 76.9657 4.34524 74.1217 4.34524H68.9745Z" fill="#FF7262"/>
<path d="M58.6801 9.62367C58.6801 12.54 60.9856 14.9044 63.8273 14.9044H68.9745V4.34524H63.8273C60.9856 4.34524 58.6801 6.70956 58.6801 9.62367Z" fill="#F24E1E"/>
<path d="M58.6801 20.1828C58.6801 23.0992 60.9856 25.4612 63.8273 25.4612H68.9745L68.9745 14.9044H63.8273C60.9856 14.9044 58.6801 17.2642 58.6801 20.1828Z" fill="#A259FF"/>
</svg>
