<svg width="39" height="39" viewBox="0 0 39 39" fill="none" xmlns="http://www.w3.org/2000/svg">
<path d="M5.78059 0L0 5.78059L2.17021 7.94681L5.05851 5.05851L6.50266 6.50266L3.61436 9.39096L6.50266 12.2793L9.39096 9.39096L10.8351 10.8351L7.94681 13.7234L10.8351 16.6117L16.6117 10.8351L5.78059 0ZM32.3338 0.889628L26.8883 6.33511L32.6649 12.1117L38.1104 6.66622C37.3279 5.56598 36.4682 4.50542 35.4814 3.51862C34.4946 2.53184 33.434 1.67219 32.3338 0.889628ZM24 9.2234L2.33378 30.8896L0.889628 38.1104L8.11037 36.6662L29.7766 15L24 9.2234ZM28.1649 22.3883L22.3883 28.1649L25.2766 31.0532L28.1649 28.1649L29.609 29.609L26.7207 32.4973L29.609 35.3856L32.4973 32.4973L33.9415 33.9415L31.0532 36.8298L33.2194 39L39 33.2194L28.1649 22.3883Z" fill="#B2B8B6"/>
</svg>
