<svg width="36" height="31" viewBox="0 0 36 31" fill="none" xmlns="http://www.w3.org/2000/svg">
<path d="M3 15.5L1.23223 13.7322C0.255922 14.7085 0.255922 16.2915 1.23223 17.2678L3 15.5ZM33 18H35.5V13H33V18ZM17.2678 4.76777C18.2441 3.79146 18.2441 2.20854 17.2678 1.23223C16.2915 0.255922 14.7085 0.255922 13.7322 1.23223L17.2678 4.76777ZM13.7322 29.7678C14.7085 30.7441 16.2915 30.7441 17.2678 29.7678C18.2441 28.7915 18.2441 27.2085 17.2678 26.2322L13.7322 29.7678ZM3 18H33V13H3V18ZM4.76777 17.2678L17.2678 4.76777L13.7322 1.23223L1.23223 13.7322L4.76777 17.2678ZM1.23223 17.2678L13.7322 29.7678L17.2678 26.2322L4.76777 13.7322L1.23223 17.2678Z" fill="#D9D9D9"/>
</svg>
