<svg width="55" height="55" viewBox="0 0 55 55" fill="none" xmlns="http://www.w3.org/2000/svg">
<path fill-rule="evenodd" clip-rule="evenodd" d="M41.375 35.625H45.0625C50.3023 35.625 54.5 39.8227 54.5 45.0625C54.5 50.3023 50.3023 54.5 45.0625 54.5C39.8227 54.5 35.625 50.3023 35.625 45.0625V41.375H18.875V45.0625C18.875 50.3023 14.6773 54.5 9.4375 54.5C4.19772 54.5 0 50.3023 0 45.0625C0 39.8227 4.19772 35.625 9.4375 35.625H13.125V18.875H9.4375C4.19772 18.875 0 14.6773 0 9.4375C0 4.19772 4.19772 0 9.4375 0C14.6773 0 18.875 4.19772 18.875 9.4375V13.125H35.625V9.4375C35.625 4.19772 39.8227 0 45.0625 0C50.3023 0 54.5 4.19772 54.5 9.4375C54.5 14.6773 50.3023 18.875 45.0625 18.875H41.375V35.625ZM45.0625 5.75C42.9898 5.75 41.375 7.36478 41.375 9.4375V13.125H45.0625C47.1352 13.125 48.75 11.5102 48.75 9.4375C48.75 7.36478 47.1352 5.75 45.0625 5.75ZM9.4375 48.75C11.5102 48.75 13.125 47.1352 13.125 45.0625V41.375H9.4375C7.36478 41.375 5.75 42.9898 5.75 45.0625C5.75 47.1352 7.36478 48.75 9.4375 48.75ZM9.4375 13.125H13.125V9.4375C13.125 7.36478 11.5102 5.75 9.4375 5.75C7.36478 5.75 5.75 7.36478 5.75 9.4375C5.75 11.5102 7.36478 13.125 9.4375 13.125ZM18.875 35.625H35.625V18.875H18.875V35.625ZM41.375 45.0625C41.375 47.1352 42.9898 48.75 45.0625 48.75C47.1352 48.75 48.75 47.1352 48.75 45.0625C48.75 42.9898 47.1352 41.375 45.0625 41.375H41.375V45.0625ZM45.0625 36.625C49.75 36.625 53.5 40.375 53.5 45.0625C53.5 49.75 49.75 53.5 45.0625 53.5C40.375 53.5 36.625 49.75 36.625 45.0625V40.375H17.875V45.0625C17.875 49.75 14.125 53.5 9.4375 53.5C4.75 53.5 1 49.75 1 45.0625C1 40.375 4.75 36.625 9.4375 36.625H14.125V17.875H9.4375C4.75 17.875 1 14.125 1 9.4375C1 4.75 4.75 1 9.4375 1C14.125 1 17.875 4.75 17.875 9.4375V14.125H36.625V9.4375C36.625 4.75 40.375 1 45.0625 1C49.75 1 53.5 4.75 53.5 9.4375C53.5 14.125 49.75 17.875 45.0625 17.875H40.375V36.625H45.0625ZM45.0625 4.75C42.4375 4.75 40.375 6.8125 40.375 9.4375V14.125H45.0625C47.6875 14.125 49.75 12.0625 49.75 9.4375C49.75 6.8125 47.6875 4.75 45.0625 4.75ZM9.4375 49.75C12.0625 49.75 14.125 47.6875 14.125 45.0625V40.375H9.4375C6.8125 40.375 4.75 42.4375 4.75 45.0625C4.75 47.6875 6.8125 49.75 9.4375 49.75ZM14.125 14.125V9.4375C14.125 6.8125 12.0625 4.75 9.4375 4.75C6.8125 4.75 4.75 6.8125 4.75 9.4375C4.75 12.0625 6.8125 14.125 9.4375 14.125H14.125ZM36.625 36.625V17.875H17.875V36.625H36.625ZM40.375 45.0625C40.375 47.6875 42.4375 49.75 45.0625 49.75C47.6875 49.75 49.75 47.6875 49.75 45.0625C49.75 42.4375 47.6875 40.375 45.0625 40.375H40.375V45.0625Z" fill="url(#paint0_linear_1_187)"/>
<path fill-rule="evenodd" clip-rule="evenodd" d="M53.5 45.0625C53.5 40.375 49.75 36.625 45.0625 36.625H40.375V17.875H45.0625C49.75 17.875 53.5 14.125 53.5 9.4375C53.5 4.75 49.75 1 45.0625 1C40.375 1 36.625 4.75 36.625 9.4375V14.125H17.875V9.4375C17.875 4.75 14.125 1 9.4375 1C4.75 1 1 4.75 1 9.4375C1 14.125 4.75 17.875 9.4375 17.875H14.125V36.625H9.4375C4.75 36.625 1 40.375 1 45.0625C1 49.75 4.75 53.5 9.4375 53.5C14.125 53.5 17.875 49.75 17.875 45.0625V40.375H36.625V45.0625C36.625 49.75 40.375 53.5 45.0625 53.5C49.75 53.5 53.5 49.75 53.5 45.0625ZM45.0625 4.75C42.4375 4.75 40.375 6.8125 40.375 9.4375V14.125H45.0625C47.6875 14.125 49.75 12.0625 49.75 9.4375C49.75 6.8125 47.6875 4.75 45.0625 4.75ZM9.4375 49.75C12.0625 49.75 14.125 47.6875 14.125 45.0625V40.375H9.4375C6.8125 40.375 4.75 42.4375 4.75 45.0625C4.75 47.6875 6.8125 49.75 9.4375 49.75ZM14.125 9.4375C14.125 6.8125 12.0625 4.75 9.4375 4.75C6.8125 4.75 4.75 6.8125 4.75 9.4375C4.75 12.0625 6.8125 14.125 9.4375 14.125H14.125V9.4375ZM40.375 45.0625C40.375 47.6875 42.4375 49.75 45.0625 49.75C47.6875 49.75 49.75 47.6875 49.75 45.0625C49.75 42.4375 47.6875 40.375 45.0625 40.375H40.375V45.0625ZM17.875 36.625H36.625V17.875H17.875V36.625Z" fill="url(#paint1_linear_1_187)"/>
<defs>
<linearGradient id="paint0_linear_1_187" x1="27.25" y1="0" x2="27.25" y2="54.5" gradientUnits="userSpaceOnUse">
<stop stop-color="#FF0000"/>
<stop offset="0.5" stop-color="#EADF6B"/>
<stop offset="1" stop-color="#00B2FF"/>
</linearGradient>
<linearGradient id="paint1_linear_1_187" x1="27.25" y1="0" x2="27.25" y2="54.5" gradientUnits="userSpaceOnUse">
<stop stop-color="#FF0000"/>
<stop offset="0.5" stop-color="#EADF6B"/>
<stop offset="1" stop-color="#00B2FF"/>
</linearGradient>
</defs>
</svg>
